<svg width="71" height="23" viewBox="0 0 71 23" fill="none" xmlns="http://www.w3.org/2000/svg">
<path d="M16.04 18.232H8.2L6.728 23H0.968L9.256 0.119999H15.016L23.272 23H17.512L16.04 18.232ZM9.512 13.848H14.76L12.168 5.4H12.104L9.512 13.848ZM24.5925 0.119999H29.7125V23H24.5925V0.119999ZM38.328 9.848H47.512V14.552H38.328V23H32.568V0.119999H49.592V4.824H38.328V9.848ZM63.1963 18.232H55.3563L53.8843 23H48.1242L56.4123 0.119999H62.1723L70.4283 23H64.6683L63.1963 18.232ZM56.6683 13.848H61.9163L59.3243 5.4H59.2603L56.6683 13.848Z" fill="black"/>
</svg>
